<svg width="107" height="107" viewBox="0 0 107 107" fill="none" xmlns="http://www.w3.org/2000/svg">
<path d="M107 53.5C107 83.0472 83.0472 107 53.5 107C23.9528 107 0 83.0472 0 53.5C0 23.9528 23.9528 0 53.5 0C83.0472 0 107 23.9528 107 53.5Z" fill="url(#paint0_linear_117_390)"/>
<path d="M75.4893 27.8394C75.9558 27.6213 76.4783 27.5522 76.9855 27.6414C77.4928 27.7306 77.9602 27.9738 78.3244 28.338C78.6886 28.7022 78.9318 29.1696 79.021 29.6769C79.1103 30.1842 79.0411 30.7066 78.823 31.1732L75.8865 37.5003C73.5849 42.4609 72.3926 47.8637 72.3926 53.3322C72.3926 58.8007 73.5849 64.2035 75.8865 69.1642L78.8195 75.4877C79.0376 75.9543 79.1067 76.4767 79.0175 76.984C78.9283 77.4912 78.6851 77.9587 78.3209 78.3229C77.9567 78.6871 77.4892 78.9303 76.982 79.0195C76.4747 79.1087 75.9523 79.0396 75.4857 78.8215L69.1621 75.8885C64.2015 73.5869 58.7987 72.3946 53.3302 72.3946C47.8617 72.3946 42.4589 73.5869 37.4983 75.8885L31.1747 78.8215C30.7081 79.0396 30.1857 79.1087 29.6784 79.0195C29.1712 78.9303 28.7037 78.6871 28.3395 78.3229C27.9753 77.9587 27.7321 77.4912 27.6429 76.984C27.5537 76.4767 27.6228 75.9543 27.8409 75.4877L30.7739 69.1642C33.0755 64.2035 34.2678 58.8007 34.2678 53.3322C34.2678 47.8637 33.0755 42.4609 30.7739 37.5003L27.8374 31.1732C27.6193 30.7066 27.5501 30.1842 27.6394 29.6769C27.7286 29.1696 27.9718 28.7022 28.336 28.338C28.7002 27.9738 29.1676 27.7306 29.6749 27.6414C30.1821 27.5522 30.7046 27.6213 31.1712 27.8394L37.4983 30.7759C42.4589 33.0775 47.8617 34.2698 53.3302 34.2698C58.7987 34.2698 64.2015 33.0775 69.1621 30.7759L75.4893 27.8394Z" fill="black"/>
<defs>
<linearGradient id="paint0_linear_117_390" x1="53.5" y1="0" x2="53.5" y2="107" gradientUnits="userSpaceOnUse">
<stop stop-color="white"/>
<stop offset="1" stop-color="#DADADA"/>
</linearGradient>
</defs>
</svg>
